<?xml version="1.0" encoding="UTF-8" standalone="no"?>
<svg
   xmlns:dc="http://purl.org/dc/elements/1.1/"
   xmlns:cc="http://creativecommons.org/ns#"
   xmlns:rdf="http://www.w3.org/1999/02/22-rdf-syntax-ns#"
   xmlns:svg="http://www.w3.org/2000/svg"
   xmlns="http://www.w3.org/2000/svg"
   xmlns:sodipodi="http://sodipodi.sourceforge.net/DTD/sodipodi-0.dtd"
   xmlns:inkscape="http://www.inkscape.org/namespaces/inkscape"
   width="32px"
   height="29px"
   viewBox="0 0 32 29"
   version="1.1"
   id="svg3725"
   sodipodi:docname="cart-hover.svg"
   inkscape:version="0.92.3 (2405546, 2018-03-11)">
  <metadata
     id="metadata3731">
    <rdf:RDF>
      <cc:Work
         rdf:about="">
        <dc:format>image/svg+xml</dc:format>
        <dc:type
           rdf:resource="http://purl.org/dc/dcmitype/StillImage" />
        <dc:title></dc:title>
      </cc:Work>
    </rdf:RDF>
  </metadata>
  <defs
     id="defs3729" />
  <sodipodi:namedview
     pagecolor="#ffffff"
     bordercolor="#666666"
     borderopacity="1"
     objecttolerance="10"
     gridtolerance="10"
     guidetolerance="10"
     inkscape:pageopacity="0"
     inkscape:pageshadow="2"
     inkscape:window-width="1600"
     inkscape:window-height="837"
     id="namedview3727"
     showgrid="false"
     inkscape:zoom="23.034483"
     inkscape:cx="16"
     inkscape:cy="14.5"
     inkscape:window-x="-8"
     inkscape:window-y="-8"
     inkscape:window-maximized="1"
     inkscape:current-layer="svg3725" />
  <path
     fillRule="evenodd"
     d="M 31.9 7.56C 31.9 7.56 26.49 19.98 26.49 19.98 26.3 20.41 25.88 20.69 25.41 20.69 25.41 20.69 10.55 20.69 10.55 20.69 10.02 20.69 9.55 20.33 9.41 19.82 9.41 19.82 4.58 2.36 4.58 2.36 4.58 2.36 1.18 2.36 1.18 2.36 0.53 2.36-0 1.83-0 1.18-0 0.53 0.53-0 1.18-0 1.18-0 5.46-0 5.46-0 6-0 6.47 0.35 6.61 0.87 6.61 0.87 11.44 18.32 11.44 18.32 11.44 18.32 24.62 18.32 24.62 18.32 24.62 18.32 29 8.27 29 8.27 29 8.27 14.4 8.27 14.4 8.27 13.75 8.27 13.22 7.74 13.22 7.09 13.22 6.44 13.75 5.91 14.4 5.91 14.4 5.91 30.81 5.91 30.81 5.91 31.21 5.91 31.58 6.11 31.8 6.44 32.02 6.78 32.06 7.19 31.9 7.56ZM 9.43 23.64C 10.91 23.64 12.11 24.84 12.11 26.32 12.11 27.8 10.91 29 9.43 29 7.95 29 6.75 27.8 6.75 26.32 6.75 24.84 7.95 23.64 9.43 23.64ZM 26.02 23.64C 27.5 23.54 28.78 24.67 28.88 26.12 28.92 26.85 28.7 27.54 28.23 28.07 27.76 28.63 27.11 28.94 26.39 29 26.34 29 26.26 29 26.2 29 24.8 29 23.63 27.9 23.53 26.5 23.44 25.04 24.54 23.74 26.02 23.64Z"
     fill="rgb(33,33,33)"
     id="path3723" />
  <path
     style="fill:#ff2a2a;stroke-width:0.04341317"
     d="m 10.339509,20.645368 c -0.25409,-0.04309 -0.56773,-0.246672 -0.7319217,-0.475092 -0.142868,-0.198755 0.088089,0.611636 -2.7406589,-9.616533 L 4.5976927,2.3486527 2.7123942,2.3269461 C 0.87650812,2.3058085 0.82243675,2.3027464 0.64933275,2.2101175 0.14595428,1.940757 -0.09029563,1.34751 0.08983941,0.80517415 0.19148897,0.49913597 0.49179017,0.19532855 0.79082336,0.09600566 0.98721063,0.03077629 1.2596418,0.02449297 3.4147867,0.0354869 5.6188982,0.04673061 5.831338,0.05416314 5.9601175,0.12453937 6.1665476,0.23735038 6.4001665,0.45411482 6.4808637,0.60771688 6.5197706,0.6817735 7.647028,4.6983907 8.9858803,9.5335329 l 2.4342767,8.7911681 6.602501,0.01099 6.6025,0.01099 0.05509,-0.119526 c 0.128589,-0.278971 4.3437,-9.9615608 4.3437,-9.9779727 0,-0.00993 -3.356344,-0.018049 -7.458542,-0.018049 H 14.106868 L 13.882297,8.1192294 C 13.483458,7.9204791 13.254012,7.5422223 13.254259,7.0838665 c 8.7e-5,-0.1450113 0.02993,-0.334759 0.06633,-0.4216618 0.08939,-0.2134044 0.355537,-0.5004393 0.570913,-0.6157229 l 0.176614,-0.094536 8.437614,-0.011286 c 5.653332,-0.00756 8.49207,0.00338 8.602639,0.03315 0.647268,0.1742913 1.02225,0.8995262 0.785555,1.5193044 -0.05015,0.1313248 -1.306961,3.0297758 -2.792907,6.4410028 -2.944152,6.758776 -2.784315,6.43108 -3.239438,6.641455 l -0.202146,0.09344 -7.553892,0.0062 c -4.154641,0.0034 -7.649354,-0.01002 -7.76603,-0.02981 z"
     id="path3733"
     inkscape:connector-curvature="0" />
  <path
     style="fill:#ff2a2a;stroke-width:0.04341317"
     d="M 8.8585329,28.914197 C 7.8861201,28.685714 7.1019735,27.928497 6.855786,26.98023 6.768333,26.643379 6.759639,26.050156 6.837413,25.726647 c 0.2341942,-0.97415 1.0252631,-1.765219 1.9994132,-1.999414 0.3212465,-0.07723 0.9160263,-0.06927 1.2470298,0.01669 1.370757,0.355988 2.236426,1.748518 1.944254,3.127564 -0.158029,0.745895 -0.74487,1.499354 -1.421129,1.824622 -0.568781,0.273572 -1.1851158,0.350448 -1.7484482,0.218084 z"
     id="path3735"
     inkscape:connector-curvature="0" />
  <path
     style="fill:#ffaaaa;stroke-width:0.04341317"
     d="m 25.637725,28.917627 c -0.951435,-0.214253 -1.771391,-1.024996 -2.01806,-1.995386 -0.140563,-0.552968 -0.05831,-1.213411 0.224304,-1.800985 0.217084,-0.451336 0.730568,-0.963013 1.185971,-1.181798 0.571948,-0.274776 1.087552,-0.347704 1.653791,-0.233915 1.272705,0.255759 2.168163,1.327262 2.165927,2.591741 -0.0012,0.67207 -0.198712,1.222793 -0.622325,1.735138 -0.603163,0.729502 -1.666669,1.09304 -2.589608,0.885205 z"
     id="path3737"
     inkscape:connector-curvature="0" />
  <path
     style="fill:#ffaaaa;stroke-width:0.04341317"
     d="M 8.7282934,28.858055 C 7.8923275,28.617418 7.1895806,27.931009 6.90019,27.072455 6.83853,26.889524 6.819954,26.706771 6.820762,26.291018 c 9.863e-4,-0.507576 0.01002,-0.565121 0.1397128,-0.88997 0.3794102,-0.950331 1.2796562,-1.634082 2.2395033,-1.700938 0.8229409,-0.05732 1.5037269,0.193335 2.0719259,0.762851 0.523193,0.524405 0.777497,1.136527 0.777497,1.87147 0,0.727462 -0.242414,1.287065 -0.801108,1.849324 -0.377469,0.379877 -0.686636,0.559761 -1.180458,0.686829 -0.3530787,0.09085 -1.0014672,0.08479 -1.3395417,-0.01253 z"
     id="path3739"
     inkscape:connector-curvature="0" />
  <path
     style="fill:#ffaaaa;stroke-width:0.04341317"
     d="M 10.110096,20.541936 C 9.986629,20.48445 9.8087557,20.358222 9.7148222,20.26143 9.5667911,20.108894 9.5222987,20.011523 9.3809132,19.530672 9.1939149,18.894692 7.9849205,14.542934 5.9933282,7.3371064 L 4.6123429,2.3405298 2.7848391,2.3104185 C 1.779712,2.2938572 0.88230495,2.2602672 0.79060118,2.235774 0.58127271,2.1798644 0.25283839,1.8822663 0.14859187,1.6540419 0.03498919,1.4053344 0.04011403,0.95133962 0.15938857,0.69759396 0.27105243,0.46003932 0.58580973,0.17314401 0.80006381,0.11363063 1.0233114,0.05161912 5.6352224,0.05491129 5.8597237,0.11724242 5.9596856,0.1449962 6.118441,0.24883408 6.2439298,0.36854207 6.4575439,0.57231552 6.4580493,0.57346866 6.6939543,1.3954789 7.1906796,3.1263177 11.398204,18.26945 11.398204,18.326356 c 0,0.01118 2.982877,0.01538 6.628616,0.0093 l 6.628617,-0.01099 0.559097,-1.280689 c 1.734887,-3.973999 3.809418,-8.7569898 3.809418,-8.7829092 0,-0.016481 -3.355296,-0.030148 -7.456212,-0.030372 L 14.111527,8.2303398 13.888212,8.1022592 C 13.452746,7.852501 13.226201,7.4173886 13.282449,6.9388053 c 0.01527,-0.1299331 0.0485,-0.2749882 0.07385,-0.3223442 0.07947,-0.1484934 0.357209,-0.433728 0.526208,-0.5404128 l 0.162179,-0.1023787 8.520698,9.551e-4 c 8.152076,9.117e-4 8.52821,0.00438 8.694351,0.080114 0.42953,0.1958034 0.672904,0.5705286 0.672904,1.0360797 0,0.3082457 -0.006,0.3226919 -3.05854,7.3221326 -2.617302,6.00151 -2.580367,5.925413 -2.972356,6.124048 l -0.217715,0.110306 -7.674722,-4.34e-4 -7.674721,-4.34e-4 -0.224485,-0.104521 z"
     id="path3741"
     inkscape:connector-curvature="0" />
</svg>
